<?xml version="1.0" encoding="UTF-8"?>
<svg xmlns="http://www.w3.org/2000/svg" xmlns:xlink="http://www.w3.org/1999/xlink" viewBox="0 0 64 64" width="512" height="512"><defs><linearGradient id="New_Gradient_Swatch_1" x1="32" y1="61.927" x2="32" y2="6.361" gradientUnits="userSpaceOnUse"><stop offset="0" stop-color="#1a125f"/><stop offset="0.205" stop-color="#423795"/><stop offset="0.681" stop-color="#ed1a58"/><stop offset="1" stop-color="#54c2ef"/></linearGradient></defs><g id="Layer_48" data-name="Layer 48"><path d="M12,20.45v23.1L32,55.09,52,43.55V20.45L32,8.91Zm34.5,20.5-14,8.083a1,1,0,0,1-1,0l-14-8.083a1,1,0,0,1,1-1.732L32,47.011l13.5-7.794a1,1,0,0,1,1,1.732ZM20,36V28a1,1,0,0,1,1.8-.6L26,33V28a1,1,0,0,1,2,0v8a1.014,1.014,0,0,1-.68.95A1.185,1.185,0,0,1,27,37a.985.985,0,0,1-.8-.4L22,31v5a1,1,0,0,1-2,0Zm16-5a1,1,0,0,1,0,2H32v3a1,1,0,0,1-2,0V28a1,1,0,0,1,1-1h5a1,1,0,0,1,0,2H32v2Zm3-2a1,1,0,0,1,0-2h6a1,1,0,0,1,0,2H43v7a1,1,0,0,1-2,0V29Zm7.5-5.949a1,1,0,1,1-1,1.732L32,16.989,18.5,24.783a1,1,0,0,1-1-1.732l14-8.083a1,1,0,0,1,1,0Z" style="fill:url(#New_Gradient_Swatch_1)"/><path d="M32,4.29,8,18.14V45.86L32,59.71,56,45.86V18.14ZM54,44.12a1,1,0,0,1-.5.87l-21,12.13a1.027,1.027,0,0,1-1,0l-21-12.13a1,1,0,0,1-.5-.87V19.88a1,1,0,0,1,.5-.87l21-12.13a1.044,1.044,0,0,1,1,0l21,12.13a1,1,0,0,1,.5.87Z" style="fill:url(#New_Gradient_Swatch_1)"/></g></svg>
